<?xml version="1.0" encoding="UTF-8" standalone="no"?><svg xmlns="http://www.w3.org/2000/svg" xmlns:xlink="http://www.w3.org/1999/xlink" contentScriptType="application/ecmascript" contentStyleType="text/css" height="1700px" preserveAspectRatio="none" style="width:1448px;height:1700px;" version="1.1" viewBox="0 0 1448 1700" width="1448px" zoomAndPan="magnify"><defs/><g><!--cluster shard2--><rect fill="#FFFFFF" height="130" style="stroke: #444444; stroke-width: 1.0; stroke-dasharray: 7.0,7.0;" width="152" x="1246" y="996.5"/><text fill="#444444" font-family="sans-serif" font-size="16" font-weight="bold" lengthAdjust="spacingAndGlyphs" textLength="63" x="1290.5" y="1013.9688">Shard 2</text><!--cluster shard1--><rect fill="#FFFFFF" height="1365.5" style="stroke: #444444; stroke-width: 1.0; stroke-dasharray: 7.0,7.0;" width="1011" x="14" y="185.5"/><text fill="#444444" font-family="sans-serif" font-size="16" font-weight="bold" lengthAdjust="spacingAndGlyphs" textLength="63" x="488" y="202.9688">Shard 1</text><!--cluster core_node1--><rect fill="#FFFFFF" height="1328.5" style="stroke: #444444; stroke-width: 1.0; stroke-dasharray: 7.0,7.0;" width="451" x="294" y="214.5"/><text fill="#444444" font-family="sans-serif" font-size="16" font-weight="bold" lengthAdjust="spacingAndGlyphs" textLength="84" x="477.5" y="231.9688">Core Node</text><text fill="#444444" font-family="sans-serif" font-size="12" font-weight="bold" lengthAdjust="spacingAndGlyphs" textLength="53" x="493" y="246.9453">[System]</text><!--entity node3--><rect fill="#999999" height="71.8203" style="stroke: #8A8A8A; stroke-width: 1.5;" width="136" x="1254" y="1046.5"/><text fill="#FFFFFF" font-family="sans-serif" font-size="16" font-weight="bold" lengthAdjust="spacingAndGlyphs" textLength="100" x="1272" y="1071.9688">Core Node 3</text><text fill="#FFFFFF" font-family="sans-serif" font-size="14" lengthAdjust="spacingAndGlyphs" textLength="0" x="1324" y="1088.8789"/><text fill="#FFFFFF" font-family="sans-serif" font-size="14" lengthAdjust="spacingAndGlyphs" textLength="116" x="1264" y="1105.3672">Other Core Node</text><!--entity node1--><rect fill="#999999" height="88.3086" style="stroke: #8A8A8A; stroke-width: 1.5;" width="263" x="22.5" y="1196"/><text fill="#FFFFFF" font-family="sans-serif" font-size="16" font-weight="bold" lengthAdjust="spacingAndGlyphs" textLength="100" x="104" y="1221.4688">Core Node 1</text><text fill="#FFFFFF" font-family="sans-serif" font-size="14" lengthAdjust="spacingAndGlyphs" textLength="0" x="156" y="1238.3789"/><text fill="#FFFFFF" font-family="sans-serif" font-size="14" lengthAdjust="spacingAndGlyphs" textLength="154" x="32.5" y="1254.8672">Other Core Node in an</text><text fill="#FFFFFF" font-family="sans-serif" font-size="14" font-weight="bold" lengthAdjust="spacingAndGlyphs" textLength="85" x="190.5" y="1254.8672">overlapping</text><text fill="#FFFFFF" font-family="sans-serif" font-size="14" lengthAdjust="spacingAndGlyphs" textLength="83" x="114.5" y="1271.3555">Shard space</text><!--entity node2--><rect fill="#999999" height="88.3086" style="stroke: #8A8A8A; stroke-width: 1.5;" width="263" x="753.5" y="1196"/><text fill="#FFFFFF" font-family="sans-serif" font-size="16" font-weight="bold" lengthAdjust="spacingAndGlyphs" textLength="100" x="835" y="1221.4688">Core Node 2</text><text fill="#FFFFFF" font-family="sans-serif" font-size="14" lengthAdjust="spacingAndGlyphs" textLength="0" x="887" y="1238.3789"/><text fill="#FFFFFF" font-family="sans-serif" font-size="14" lengthAdjust="spacingAndGlyphs" textLength="154" x="763.5" y="1254.8672">Other Core Node in an</text><text fill="#FFFFFF" font-family="sans-serif" font-size="14" font-weight="bold" lengthAdjust="spacingAndGlyphs" textLength="85" x="921.5" y="1254.8672">overlapping</text><text fill="#FFFFFF" font-family="sans-serif" font-size="14" lengthAdjust="spacingAndGlyphs" textLength="83" x="845.5" y="1271.3555">Shard space</text><!--entity iptables--><rect fill="#438DD5" height="118.9297" style="stroke: #3C7FC0; stroke-width: 1.5;" width="176" x="549" y="299.5"/><text fill="#FFFFFF" font-family="sans-serif" font-size="16" font-weight="bold" lengthAdjust="spacingAndGlyphs" textLength="97" x="588.5" y="324.9688">Rate Limiter</text><text fill="#FFFFFF" font-family="sans-serif" font-size="12" font-style="italic" lengthAdjust="spacingAndGlyphs" textLength="142" x="566" y="339.9453">[Container: Linux Kernel]</text><text fill="#FFFFFF" font-family="sans-serif" font-size="14" lengthAdjust="spacingAndGlyphs" textLength="0" x="639" y="356.0117"/><text fill="#FFFFFF" font-family="sans-serif" font-size="14" lengthAdjust="spacingAndGlyphs" textLength="129" x="570.5" y="372.5">DDoS mitigation of</text><text fill="#FFFFFF" font-family="sans-serif" font-size="14" lengthAdjust="spacingAndGlyphs" textLength="121" x="574.5" y="388.9883">Gossip/Sync from</text><text fill="#FFFFFF" font-family="sans-serif" font-size="14" lengthAdjust="spacingAndGlyphs" textLength="156" x="559" y="405.4766">malicious/faulty nodes</text><!--entity nginx--><rect fill="#438DD5" height="133.0625" style="stroke: #3C7FC0; stroke-width: 1.5;" width="211" x="302.5" y="292.5"/><text fill="#FFFFFF" font-family="sans-serif" font-size="16" font-weight="bold" lengthAdjust="spacingAndGlyphs" textLength="113" x="351.5" y="317.9688">Reverse Proxy</text><text fill="#FFFFFF" font-family="sans-serif" font-size="12" font-style="italic" lengthAdjust="spacingAndGlyphs" textLength="174" x="319" y="332.9453">[Container: NGINX/HAProxy in</text><text fill="#FFFFFF" font-family="sans-serif" font-size="12" font-style="italic" lengthAdjust="spacingAndGlyphs" textLength="45" x="385.5" y="347.0781">Docker]</text><text fill="#FFFFFF" font-family="sans-serif" font-size="14" lengthAdjust="spacingAndGlyphs" textLength="0" x="410" y="363.1445"/><text fill="#FFFFFF" font-family="sans-serif" font-size="14" lengthAdjust="spacingAndGlyphs" textLength="153" x="329.5" y="379.6328">TLS termination, DDoS</text><text fill="#FFFFFF" font-family="sans-serif" font-size="14" lengthAdjust="spacingAndGlyphs" textLength="181" x="315.5" y="396.1211">mitigation, authentication,</text><text fill="#FFFFFF" font-family="sans-serif" font-size="14" lengthAdjust="spacingAndGlyphs" textLength="191" x="312.5" y="412.6094">and filtering of API requests</text><!--entity core--><rect fill="#438DD5" height="135.418" style="stroke: #3C7FC0; stroke-width: 1.5;" width="218" x="512" y="777.5"/><text fill="#FFFFFF" font-family="sans-serif" font-size="16" font-weight="bold" lengthAdjust="spacingAndGlyphs" textLength="82" x="580" y="802.9688">RadixCore</text><text fill="#FFFFFF" font-family="sans-serif" font-size="12" font-style="italic" lengthAdjust="spacingAndGlyphs" textLength="154" x="544" y="817.9453">[Container: Java in Docker]</text><text fill="#FFFFFF" font-family="sans-serif" font-size="14" lengthAdjust="spacingAndGlyphs" textLength="0" x="623" y="834.0117"/><text fill="#FFFFFF" font-family="sans-serif" font-size="14" lengthAdjust="spacingAndGlyphs" textLength="173" x="532.5" y="850.5">Gossips and Syncs Atoms</text><text fill="#FFFFFF" font-family="sans-serif" font-size="14" lengthAdjust="spacingAndGlyphs" textLength="194" x="522" y="866.9883">with other Nodes and serves</text><text fill="#FFFFFF" font-family="sans-serif" font-size="14" lengthAdjust="spacingAndGlyphs" textLength="155" x="541.5" y="883.4766">light-clients in a Radix</text><text fill="#FFFFFF" font-family="sans-serif" font-size="14" lengthAdjust="spacingAndGlyphs" textLength="57" x="592.5" y="899.9648">Network</text><!--entity ledger--><path d="M517,1425.5 C517,1415.5 627,1415.5 627,1415.5 C627,1415.5 737,1415.5 737,1425.5 L737,1516.9414 C737,1526.9414 627,1526.9414 627,1526.9414 C627,1526.9414 517,1526.9414 517,1516.9414 L517,1425.5 " fill="#438DD5" style="stroke: #3C7FC0; stroke-width: 1.5;"/><path d="M517,1425.5 C517,1435.5 627,1435.5 627,1435.5 C627,1435.5 737,1435.5 737,1425.5 " fill="none" style="stroke: #3C7FC0; stroke-width: 1.5;"/><text fill="#FFFFFF" font-family="sans-serif" font-size="16" font-weight="bold" lengthAdjust="spacingAndGlyphs" textLength="98" x="578" y="1454.9688">Ledger Data</text><text fill="#FFFFFF" font-family="sans-serif" font-size="12" font-style="italic" lengthAdjust="spacingAndGlyphs" textLength="159" x="547.5" y="1469.9453">[Container: Docker Volume]</text><text fill="#FFFFFF" font-family="sans-serif" font-size="14" lengthAdjust="spacingAndGlyphs" textLength="0" x="629" y="1486.0117"/><text fill="#FFFFFF" font-family="sans-serif" font-size="14" lengthAdjust="spacingAndGlyphs" textLength="200" x="527" y="1502.5">stores ledger data, metadata,</text><text fill="#FFFFFF" font-family="sans-serif" font-size="14" lengthAdjust="spacingAndGlyphs" textLength="161" x="546.5" y="1518.9883">index, and bloom filter.</text><!--entity secrets--><path d="M302.5,1417 C302.5,1407 392,1407 392,1407 C392,1407 481.5,1407 481.5,1417 L481.5,1524.9297 C481.5,1534.9297 392,1534.9297 392,1534.9297 C392,1534.9297 302.5,1534.9297 302.5,1524.9297 L302.5,1417 " fill="#438DD5" style="stroke: #3C7FC0; stroke-width: 1.5;"/><path d="M302.5,1417 C302.5,1427 392,1427 392,1427 C392,1427 481.5,1427 481.5,1417 " fill="none" style="stroke: #3C7FC0; stroke-width: 1.5;"/><text fill="#FFFFFF" font-family="sans-serif" font-size="16" font-weight="bold" lengthAdjust="spacingAndGlyphs" textLength="58" x="363" y="1446.4688">Secrets</text><text fill="#FFFFFF" font-family="sans-serif" font-size="12" font-style="italic" lengthAdjust="spacingAndGlyphs" textLength="159" x="312.5" y="1461.4453">[Container: Docker Volume]</text><text fill="#FFFFFF" font-family="sans-serif" font-size="14" lengthAdjust="spacingAndGlyphs" textLength="0" x="394" y="1477.5117"/><text fill="#FFFFFF" font-family="sans-serif" font-size="14" lengthAdjust="spacingAndGlyphs" textLength="119" x="330.5" y="1494">stores node keys,</text><text fill="#FFFFFF" font-family="sans-serif" font-size="14" lengthAdjust="spacingAndGlyphs" textLength="134" x="323" y="1510.4883">certificates, and API</text><text fill="#FFFFFF" font-family="sans-serif" font-size="14" lengthAdjust="spacingAndGlyphs" textLength="77" x="353.5" y="1526.9766">passwords.</text><!--entity ws_app1--><rect fill="#999999" height="104.7969" style="stroke: #8A8A8A; stroke-width: 1.5;" width="191" x="1033.5" y="306.5"/><text fill="#FFFFFF" font-family="sans-serif" font-size="16" font-weight="bold" lengthAdjust="spacingAndGlyphs" textLength="139" x="1059.5" y="331.9688">WebSocket Client</text><text fill="#FFFFFF" font-family="sans-serif" font-size="14" lengthAdjust="spacingAndGlyphs" textLength="0" x="1131" y="348.8789"/><text fill="#FFFFFF" font-family="sans-serif" font-size="14" lengthAdjust="spacingAndGlyphs" textLength="166" x="1044" y="365.3672">Custom Application that</text><text fill="#FFFFFF" font-family="sans-serif" font-size="14" lengthAdjust="spacingAndGlyphs" textLength="161" x="1046.5" y="381.8555">uses the WebSocket API</text><text fill="#FFFFFF" font-family="sans-serif" font-size="14" lengthAdjust="spacingAndGlyphs" textLength="171" x="1043.5" y="398.3438">directly or indirectly (lib).</text><!--entity ntp1--><rect fill="#999999" height="104.7969" style="stroke: #8A8A8A; stroke-width: 1.5;" width="185" x="1033.5" y="1030"/><text fill="#FFFFFF" font-family="sans-serif" font-size="16" font-weight="bold" lengthAdjust="spacingAndGlyphs" textLength="88" x="1082" y="1055.4688">NTP Server</text><text fill="#FFFFFF" font-family="sans-serif" font-size="14" lengthAdjust="spacingAndGlyphs" textLength="0" x="1128" y="1072.3789"/><text fill="#FFFFFF" font-family="sans-serif" font-size="14" lengthAdjust="spacingAndGlyphs" textLength="161" x="1043.5" y="1088.8672">Standard Network Time</text><text fill="#FFFFFF" font-family="sans-serif" font-size="14" lengthAdjust="spacingAndGlyphs" textLength="152" x="1048" y="1105.3555">Protocol Server on the</text><text fill="#FFFFFF" font-family="sans-serif" font-size="14" lengthAdjust="spacingAndGlyphs" textLength="58" x="1097" y="1121.8438">internet.</text><!--link core to ntp1--><path d="M730.1959,855.5452 C807.1854,867.1975 909.8998,891.5944 987,942.5 C1008.6648,956.8042 1005.3506,969.4613 1023,988.5 C1034.8848,1001.3204 1048.2601,1014.3873 1061.3394,1026.5417 " fill="none" id="core-ntp1" style="stroke: #666666; stroke-width: 1.0;"/><polygon fill="#666666" points="1065.0191,1029.9447,1061.1273,1020.8974,1061.3482,1026.5499,1055.6957,1026.7709,1065.0191,1029.9447" style="stroke: #666666; stroke-width: 1.0;"/><text fill="#666666" font-family="sans-serif" font-size="13" font-weight="bold" lengthAdjust="spacingAndGlyphs" textLength="121" x="1024" y="956.0684">periodically syncs</text><text fill="#666666" font-family="sans-serif" font-size="13" font-weight="bold" lengthAdjust="spacingAndGlyphs" textLength="66" x="1053.5" y="971.3789">time from</text><text fill="#666666" font-family="sans-serif" font-size="12" font-style="italic" lengthAdjust="spacingAndGlyphs" textLength="88" x="1042.5" y="985.7227">[NTP port 123]</text><!--link core to ledger--><path d="M582.4774,912.5347 C578.253,922.3357 574.5614,932.498 572,942.5 C556.5541,1002.8156 567,1020.2381 567,1082.5 C567,1082.5 567,1082.5 567,1345.5 C567,1368.0644 574.9924,1390.8754 585.1432,1410.7472 " fill="none" id="core-ledger" style="stroke: #666666; stroke-width: 1.0;"/><polygon fill="#666666" points="587.4808,1415.2041,586.8428,1405.3759,585.1584,1410.7762,579.7582,1409.0917,587.4808,1415.2041" style="stroke: #666666; stroke-width: 1.0;"/><text fill="#666666" font-family="sans-serif" font-size="13" font-weight="bold" lengthAdjust="spacingAndGlyphs" textLength="149" x="568" y="1237.5684">reads from and writes</text><text fill="#666666" font-family="sans-serif" font-size="13" font-weight="bold" lengthAdjust="spacingAndGlyphs" textLength="13" x="636" y="1252.8789">to</text><!--link core to secrets--><path d="M516.4913,912.5841 C465.4991,954.4208 415,1013.3174 415,1082.5 C415,1082.5 415,1082.5 415,1345.5 C415,1363.9252 412.5718,1383.6264 409.2934,1401.8292 " fill="none" id="core-secrets" style="stroke: #666666; stroke-width: 1.0;"/><polygon fill="#666666" points="408.3474,1406.9213,413.924,1398.8033,409.2607,1402.0054,406.0586,1397.3421,408.3474,1406.9213" style="stroke: #666666; stroke-width: 1.0;"/><text fill="#666666" font-family="sans-serif" font-size="13" font-weight="bold" lengthAdjust="spacingAndGlyphs" textLength="74" x="416" y="1238.0684">reads from</text><text fill="#666666" font-family="sans-serif" font-size="12" font-style="italic" lengthAdjust="spacingAndGlyphs" textLength="67" x="419.5" y="1252.4121">[nodes.key]</text><!--link nginx to secrets--><path d="M383.8593,425.5766 C371.9841,461.4811 358.7912,506.854 352,548.5 C322.1526,731.5356 337,780.0468 337,965.5 C337,965.5 337,965.5 337,1345.5 C337,1364.635 342.43,1384.1355 349.8777,1401.8827 " fill="none" id="nginx-secrets" style="stroke: #666666; stroke-width: 1.0;"/><polygon fill="#666666" points="352.029,1406.84,352.1153,1396.9915,350.0384,1402.2533,344.7766,1400.1764,352.029,1406.84" style="stroke: #666666; stroke-width: 1.0;"/><text fill="#666666" font-family="sans-serif" font-size="13" font-weight="bold" lengthAdjust="spacingAndGlyphs" textLength="74" x="370" y="829.0684">reads from</text><text fill="#666666" font-family="sans-serif" font-size="12" font-style="italic" lengthAdjust="spacingAndGlyphs" textLength="103" x="353.5" y="843.4121">[htpasswd.admin,</text><text fill="#666666" font-family="sans-serif" font-size="12" font-style="italic" lengthAdjust="spacingAndGlyphs" textLength="87" x="361.5" y="857.5449">dhparam.pem,</text><text fill="#666666" font-family="sans-serif" font-size="12" font-style="italic" lengthAdjust="spacingAndGlyphs" textLength="138" x="338" y="871.6777">server.key, server.pem]</text><!--link nginx to core--><path d="M398.6558,425.6349 C396.5889,445.3508 395,467.0088 395,487 C395,487 395,487 395,701 C395,715.8497 451.2124,751.7043 507.5681,783.9189 " fill="none" id="nginx-core" style="stroke: #666666; stroke-width: 1.0;"/><polygon fill="#666666" points="511.9719,786.4288,506.1334,778.4971,507.6279,783.953,502.1721,785.4475,511.9719,786.4288" style="stroke: #666666; stroke-width: 1.0;"/><text fill="#666666" font-family="sans-serif" font-size="13" font-weight="bold" lengthAdjust="spacingAndGlyphs" textLength="135" x="396" y="562.0684">proxies connections</text><text fill="#666666" font-family="sans-serif" font-size="13" font-weight="bold" lengthAdjust="spacingAndGlyphs" textLength="13" x="459" y="577.3789">to</text><text fill="#666666" font-family="sans-serif" font-size="12" font-style="italic" lengthAdjust="spacingAndGlyphs" textLength="104" x="413.5" y="591.7227">[HTTP port 8080]</text><!--link iptables to core--><path d="M616.4088,418.5149 C610.683,439.8477 606,464.2497 606,487 C606,487 606,487 606,701 C606,724.2511 607.9585,749.5009 610.4602,772.2691 " fill="none" id="iptables-core" style="stroke: #666666; stroke-width: 1.0;"/><polygon fill="#666666" points="611.0365,777.3904,614.0049,767.9995,610.4773,772.4218,606.0551,768.8942,611.0365,777.3904" style="stroke: #666666; stroke-width: 1.0;"/><text fill="#666666" font-family="sans-serif" font-size="13" font-weight="bold" lengthAdjust="spacingAndGlyphs" textLength="129" x="607" y="569.5684">rate limits traffic to</text><text fill="#666666" font-family="sans-serif" font-size="12" font-style="italic" lengthAdjust="spacingAndGlyphs" textLength="104" x="619.5" y="583.9121">[UDP port 10000]</text><!--link nginx to ws_app1--><path d="M439.0917,287.7491 C459.6053,250.1286 490.4233,207.3364 532,185.5 C652.0161,122.4665 706.4161,146.1006 837,182.5 C923.1614,206.5169 1009.2706,263.6085 1065.4124,306.4011 " fill="none" id="nginx-ws_app1" style="stroke: #666666; stroke-width: 1.0;"/><polygon fill="#666666" points="436.6411,292.3096,444.4248,286.2752,439.0079,287.9053,437.3779,282.4883,436.6411,292.3096" style="stroke: #666666; stroke-width: 1.0;"/><text fill="#666666" font-family="sans-serif" font-size="13" font-weight="bold" lengthAdjust="spacingAndGlyphs" textLength="117" x="712.5" y="145.0684">submits/recieves</text><text fill="#666666" font-family="sans-serif" font-size="13" font-weight="bold" lengthAdjust="spacingAndGlyphs" textLength="99" x="723.5" y="160.3789">Atoms to/from</text><text fill="#666666" font-family="sans-serif" font-size="12" font-style="italic" lengthAdjust="spacingAndGlyphs" textLength="126" x="710" y="174.7227">[WebSocket port 443]</text><!--link node3 to iptables--><path d="M1322,1046.2871 C1322,999.7162 1322,916.3325 1322,845 C1322,487 1322,487 1322,487 C1322,479.5613 917.3646,407.9463 730.0797,375.1978 " fill="none" id="node3-iptables" style="stroke: #666666; stroke-width: 1.0;"/><polygon fill="#666666" points="725.1494,374.3359,733.3262,379.826,730.0747,375.1969,734.7038,371.9455,725.1494,374.3359" style="stroke: #666666; stroke-width: 1.0;"/><text fill="#666666" font-family="sans-serif" font-size="13" font-weight="bold" lengthAdjust="spacingAndGlyphs" textLength="68" x="1341" y="638.0684">gossips to</text><text fill="#666666" font-family="sans-serif" font-size="12" font-style="italic" lengthAdjust="spacingAndGlyphs" textLength="104" x="1323" y="652.4121">[UDP port 10000]</text><!--link core to node1--><path d="M511.9512,900.2811 C502.8841,904.5238 493.8168,908.6489 485,912.5 C402.2485,948.645 366.0154,934.8864 300,996.5 C240.3609,1052.1624 196.8124,1137.6278 173.4765,1191.0957 " fill="none" id="core-node1" style="stroke: #666666; stroke-width: 1.0;"/><polygon fill="#666666" points="171.4189,1195.8478,178.6658,1189.1783,173.4057,1191.2595,171.3245,1185.9994,171.4189,1195.8478" style="stroke: #666666; stroke-width: 1.0;"/><text fill="#666666" font-family="sans-serif" font-size="13" font-weight="bold" lengthAdjust="spacingAndGlyphs" textLength="68" x="319" y="1080.5684">gossips to</text><text fill="#666666" font-family="sans-serif" font-size="12" font-style="italic" lengthAdjust="spacingAndGlyphs" textLength="104" x="301" y="1094.9121">[UDP port 10000]</text><!--link core to node3--><path d="M730.2112,855.7595 C864.8048,870.5865 1084.2681,900.336 1154,942.5 C1176.2156,955.9329 1167.7259,975.1643 1190,988.5 C1207.8042,999.1596 1217.5821,986.9397 1236,996.5 C1257.256,1007.5335 1276.5584,1025.6717 1291.4658,1042.4532 " fill="none" id="core-node3" style="stroke: #666666; stroke-width: 1.0;"/><polygon fill="#666666" points="1294.7717,1046.2338,1291.8586,1036.8256,1291.4804,1042.4698,1285.8362,1042.0916,1294.7717,1046.2338" style="stroke: #666666; stroke-width: 1.0;"/><text fill="#666666" font-family="sans-serif" font-size="13" font-weight="bold" lengthAdjust="spacingAndGlyphs" textLength="68" x="1209" y="963.5684">gossips to</text><text fill="#666666" font-family="sans-serif" font-size="12" font-style="italic" lengthAdjust="spacingAndGlyphs" textLength="104" x="1191" y="977.9121">[UDP port 10000]</text><!--link node1 to iptables--><path d="M141.016,1195.9591 C132.9082,1164.6097 124,1121.3303 124,1082.5 C124,487 124,487 124,487 C124,395.5288 445.2366,457.3058 531,425.5 C535.3379,423.8913 539.6877,422.0899 544.0173,420.1392 " fill="none" id="node1-iptables" style="stroke: #666666; stroke-width: 1.0;"/><polygon fill="#666666" points="548.706,417.9659,538.8584,418.1218,544.1697,420.0686,542.2228,425.3799,548.706,417.9659" style="stroke: #666666; stroke-width: 1.0;"/><text fill="#666666" font-family="sans-serif" font-size="13" font-weight="bold" lengthAdjust="spacingAndGlyphs" textLength="55" x="149.5" y="699.0684">syncs to</text><text fill="#666666" font-family="sans-serif" font-size="12" font-style="italic" lengthAdjust="spacingAndGlyphs" textLength="104" x="125" y="713.4121">[UDP port 10000]</text><!--link core to node2--><path d="M666.3832,912.9029 C719.3978,992.224 805.786,1121.4791 852.5157,1191.3966 " fill="none" id="core-node2" style="stroke: #666666; stroke-width: 1.0;"/><polygon fill="#666666" points="855.5355,1195.9149,853.8602,1186.2096,852.7572,1191.7579,847.2089,1190.6549,855.5355,1195.9149" style="stroke: #666666; stroke-width: 1.0;"/><text fill="#666666" font-family="sans-serif" font-size="13" font-weight="bold" lengthAdjust="spacingAndGlyphs" textLength="55" x="837.5" y="1080.5684">syncs to</text><text fill="#666666" font-family="sans-serif" font-size="12" font-style="italic" lengthAdjust="spacingAndGlyphs" textLength="104" x="813" y="1094.9121">[UDP port 10000]</text><rect fill="#DDDDDD" height="112.9297" rx="5" ry="5" style="stroke: #000000; stroke-width: 1.0;" width="199" x="1238" y="1577"/><text fill="#000000" font-family="sans-serif" font-size="14" font-weight="bold" lengthAdjust="spacingAndGlyphs" textLength="0" x="1314" y="1597.5352"/><text fill="#000000" font-family="sans-serif" font-size="14" font-weight="bold" lengthAdjust="spacingAndGlyphs" textLength="35" x="1319" y="1597.5352">Type</text><rect fill="#08427B" height="16.4883" style="stroke: none; stroke-width: 1.0;" width="70" x="1244" y="1600.4883"/><text fill="#000000" font-family="sans-serif" font-size="14" lengthAdjust="spacingAndGlyphs" textLength="0" x="1268" y="1614.0234"/><text fill="#000000" font-family="sans-serif" font-size="14" lengthAdjust="spacingAndGlyphs" textLength="48" x="1318" y="1614.0234">person</text><rect fill="#686868" height="16.4883" style="stroke: none; stroke-width: 1.0;" width="70" x="1244" y="1616.9766"/><text fill="#000000" font-family="sans-serif" font-size="14" lengthAdjust="spacingAndGlyphs" textLength="0" x="1268" y="1630.5117"/><text fill="#000000" font-family="sans-serif" font-size="14" lengthAdjust="spacingAndGlyphs" textLength="109" x="1318" y="1630.5117">external person</text><rect fill="#1168BD" height="16.4883" style="stroke: none; stroke-width: 1.0;" width="70" x="1244" y="1633.4648"/><text fill="#000000" font-family="sans-serif" font-size="14" lengthAdjust="spacingAndGlyphs" textLength="0" x="1256" y="1647"/><text fill="#000000" font-family="sans-serif" font-size="14" lengthAdjust="spacingAndGlyphs" textLength="47" x="1318" y="1647">system</text><rect fill="#999999" height="16.4883" style="stroke: none; stroke-width: 1.0;" width="70" x="1244" y="1649.9531"/><text fill="#000000" font-family="sans-serif" font-size="14" lengthAdjust="spacingAndGlyphs" textLength="0" x="1268" y="1663.4883"/><text fill="#000000" font-family="sans-serif" font-size="14" lengthAdjust="spacingAndGlyphs" textLength="108" x="1318" y="1663.4883">external system</text><rect fill="#438DD5" height="16.4883" style="stroke: none; stroke-width: 1.0;" width="70" x="1244" y="1666.4414"/><text fill="#000000" font-family="sans-serif" font-size="14" lengthAdjust="spacingAndGlyphs" textLength="0" x="1256" y="1679.9766"/><text fill="#000000" font-family="sans-serif" font-size="14" lengthAdjust="spacingAndGlyphs" textLength="65" x="1318" y="1679.9766">container</text><line style="stroke: #000000; stroke-width: 1.0;" x1="1244" x2="1431" y1="1584" y2="1584"/><line style="stroke: #000000; stroke-width: 1.0;" x1="1244" x2="1431" y1="1600.4883" y2="1600.4883"/><line style="stroke: #000000; stroke-width: 1.0;" x1="1244" x2="1431" y1="1616.9766" y2="1616.9766"/><line style="stroke: #000000; stroke-width: 1.0;" x1="1244" x2="1431" y1="1633.4648" y2="1633.4648"/><line style="stroke: #000000; stroke-width: 1.0;" x1="1244" x2="1431" y1="1649.9531" y2="1649.9531"/><line style="stroke: #000000; stroke-width: 1.0;" x1="1244" x2="1431" y1="1666.4414" y2="1666.4414"/><line style="stroke: #000000; stroke-width: 1.0;" x1="1244" x2="1431" y1="1682.9297" y2="1682.9297"/><line style="stroke: #000000; stroke-width: 1.0;" x1="1244" x2="1244" y1="1584" y2="1682.9297"/><line style="stroke: #000000; stroke-width: 1.0;" x1="1314" x2="1314" y1="1584" y2="1682.9297"/><line style="stroke: #000000; stroke-width: 1.0;" x1="1431" x2="1431" y1="1584" y2="1682.9297"/><!--
@startuml c4_node_container






skinparam defaultTextAlignment center

skinparam wrapWidth 200
skinparam maxMessageSize 150

skinparam rectangle {
    StereotypeFontSize 12
    shadowing false
}

skinparam database {
    StereotypeFontSize 12
    shadowing false
}

skinparam Arrow {
    Color #666666
    FontColor #666666
    FontSize 12
}

skinparam rectangle<<boundary>> {
    Shadowing false
    StereotypeFontSize 0
    FontColor #444444
    BorderColor #444444
    BorderStyle dashed
}






















skinparam rectangle<<person>> {
    StereotypeFontColor #FFFFFF
    FontColor #FFFFFF
    BackgroundColor #08427B
    BorderColor #073B6F
}

skinparam rectangle<<external_person>> {
    StereotypeFontColor #FFFFFF
    FontColor #FFFFFF
    BackgroundColor #686868
    BorderColor #8A8A8A
}

skinparam rectangle<<system>> {
    StereotypeFontColor #FFFFFF
    FontColor #FFFFFF
    BackgroundColor #1168BD
    BorderColor #3C7FC0
}

skinparam rectangle<<external_system>> {
    StereotypeFontColor #FFFFFF
    FontColor #FFFFFF
    BackgroundColor #999999
    BorderColor #8A8A8A
}

skinparam database<<system>> {
    StereotypeFontColor #FFFFFF
    FontColor #FFFFFF
    BackgroundColor #1168BD
    BorderColor #3C7FC0
}

skinparam database<<external_system>> {
    StereotypeFontColor #FFFFFF
    FontColor #FFFFFF
    BackgroundColor #999999
    BorderColor #8A8A8A
}
















skinparam rectangle<<container>> {
    StereotypeFontColor #FFFFFF
    FontColor #FFFFFF
    BackgroundColor #438DD5
    BorderColor #3C7FC0
}

skinparam database<<container>> {
    StereotypeFontColor #FFFFFF
    FontColor #FFFFFF
    BackgroundColor #438DD5
    BorderColor #3C7FC0
}









hide stereotype
legend right
|=              |= Type |
|<#08427B>      | person |
|<#686868>      | external person |
|<#1168BD>   | system |
|<#999999>      | external system |
|<#438DD5>   | container |
endlegend

rectangle "==WebSocket Client\n\n Custom Application that uses the WebSocket API directly or indirectly (lib)." <<external_system>> as ws_app1

rectangle "==NTP Server\n\n Standard Network Time Protocol Server on the internet." <<external_system>> as ntp1

rectangle "==Shard 2" <<boundary>> as shard2 {
    rectangle "==Core Node 3\n\n Other Core Node" <<external_system>> as node3
}
rectangle "==Shard 1" <<boundary>> as shard1 {
    rectangle "==Core Node 1\n\n Other Core Node in an **overlapping** Shard space" <<external_system>> as node1
    rectangle "==Core Node 2\n\n Other Core Node in an **overlapping** Shard space" <<external_system>> as node2
    rectangle "==Core Node\n<size:12>[System]</size>" <<boundary>> as core_node1 {
        rectangle "==Rate Limiter\n//<size:12>[Container: Linux Kernel]</size>//\n\n DDoS mitigation of Gossip/Sync from malicious/faulty nodes" <<container>> as iptables
        rectangle "==Reverse Proxy\n//<size:12>[Container: NGINX/HAProxy in Docker]</size>//\n\n TLS termination, DDoS mitigation, authentication, and filtering of API requests" <<container>> as nginx
        rectangle "==RadixCore\n//<size:12>[Container: Java in Docker]</size>//\n\n Gossips and Syncs Atoms with other Nodes and serves light-clients in a Radix Network" <<container>> as core
        database "==Ledger Data\n//<size:12>[Container: Docker Volume]</size>//\n\n stores ledger data, metadata, index, and bloom filter." <<container>> as ledger
        database "==Secrets\n//<size:12>[Container: Docker Volume]</size>//\n\n stores node keys, certificates, and API passwords." <<container>> as secrets
    }
}

core - -> ntp1 : "===periodically syncs time from\n//<size:12>[NTP port 123]</size>//"

core - -> ledger : "===reads from and writes to"
core - -> secrets : "===reads from\n//<size:12>[nodes.key]</size>//"

nginx - -> secrets : "===reads from\n//<size:12>[htpasswd.admin, dhparam.pem, server.key, server.pem]</size>//"
nginx - -> core : "===proxies connections to\n//<size:12>[HTTP port 8080]</size>//"
iptables - -> core : "===rate limits traffic to\n//<size:12>[UDP port 10000]</size>//"

ws_app1 -LEFT-> nginx : "===submits/recieves Atoms to/from\n//<size:12>[WebSocket port 443]</size>//"

node3 - -> iptables : "===gossips to\n//<size:12>[UDP port 10000]</size>//"
core - -> node1 : "===gossips to\n//<size:12>[UDP port 10000]</size>//"
core - -> node3 : "===gossips to\n//<size:12>[UDP port 10000]</size>//"
node1 - -> iptables : "===syncs to\n//<size:12>[UDP port 10000]</size>//"
core - -> node2 : "===syncs to\n//<size:12>[UDP port 10000]</size>//"

@enduml

PlantUML version 1.2019.03(Sun Mar 10 12:04:44 CET 2019)
(GPL source distribution)
Java Runtime: Java(TM) SE Runtime Environment
JVM: Java HotSpot(TM) 64-Bit Server VM
Java Version: 1.8.0_181-b13
Operating System: Mac OS X
OS Version: 10.14.4
Default Encoding: US-ASCII
Language: en
Country: SE
--></g></svg>