<?xml version="1.0" encoding="UTF-8" standalone="no"?><svg xmlns="http://www.w3.org/2000/svg" xmlns:xlink="http://www.w3.org/1999/xlink" contentScriptType="application/ecmascript" contentStyleType="text/css" height="1342px" preserveAspectRatio="none" style="width:964px;height:1342px;" version="1.1" viewBox="0 0 964 1342" width="964px" zoomAndPan="magnify"><defs/><g><text fill="#000000" font-family="sans-serif" font-size="18" lengthAdjust="spacingAndGlyphs" textLength="199" x="381.5" y="17.4023">The RadixDLT Network</text><!--cluster core_nodes--><rect fill="#FFFFFF" height="579" style="stroke: #444444; stroke-width: 1.0; stroke-dasharray: 7.0,7.0;" width="861" x="53" y="305.1992"/><text fill="#444444" font-family="sans-serif" font-size="16" font-weight="bold" lengthAdjust="spacingAndGlyphs" textLength="93" x="437" y="322.668">Core Nodes</text><text fill="#444444" font-family="sans-serif" font-size="12" font-weight="bold" lengthAdjust="spacingAndGlyphs" textLength="53" x="457" y="337.6445">[System]</text><!--cluster shard1--><rect fill="#FFFFFF" height="528" style="stroke: #444444; stroke-width: 1.0; stroke-dasharray: 7.0,7.0;" width="236" x="354" y="348.1992"/><text fill="#444444" font-family="sans-serif" font-size="16" font-weight="bold" lengthAdjust="spacingAndGlyphs" textLength="63" x="440.5" y="365.668">Shard 1</text><!--cluster shard2--><rect fill="#FFFFFF" height="528" style="stroke: #444444; stroke-width: 1.0; stroke-dasharray: 7.0,7.0;" width="228" x="61" y="348.1992"/><text fill="#444444" font-family="sans-serif" font-size="16" font-weight="bold" lengthAdjust="spacingAndGlyphs" textLength="63" x="143.5" y="365.668">Shard 2</text><!--cluster shardn--><rect fill="#FFFFFF" height="528" style="stroke: #444444; stroke-width: 1.0; stroke-dasharray: 7.0,7.0;" width="236" x="670" y="348.1992"/><text fill="#444444" font-family="sans-serif" font-size="16" font-weight="bold" lengthAdjust="spacingAndGlyphs" textLength="64" x="756" y="365.668">Shard N</text><!--entity boot_node1--><path d="M366,764.1992 C366,754.1992 472,754.1992 472,754.1992 C472,754.1992 578,754.1992 578,764.1992 L578,857.9961 C578,867.9961 472,867.9961 472,867.9961 C472,867.9961 366,867.9961 366,857.9961 L366,764.1992 " fill="#1168BD" style="stroke: #3C7FC0; stroke-width: 1.5;"/><path d="M366,764.1992 C366,774.1992 472,774.1992 472,774.1992 C472,774.1992 578,774.1992 578,764.1992 " fill="none" style="stroke: #3C7FC0; stroke-width: 1.5;"/><text fill="#FFFFFF" font-family="sans-serif" font-size="16" font-weight="bold" lengthAdjust="spacingAndGlyphs" textLength="83" x="430.5" y="793.668">Boot Node</text><text fill="#FFFFFF" font-family="sans-serif" font-size="14" lengthAdjust="spacingAndGlyphs" textLength="0" x="474" y="810.5781"/><text fill="#FFFFFF" font-family="sans-serif" font-size="14" lengthAdjust="spacingAndGlyphs" textLength="171" x="384.5" y="827.0664">Core Node (higher mass)</text><text fill="#FFFFFF" font-family="sans-serif" font-size="14" lengthAdjust="spacingAndGlyphs" textLength="185" x="377.5" y="843.5547">hosted by Radix DLT. Static</text><text fill="#FFFFFF" font-family="sans-serif" font-size="14" lengthAdjust="spacingAndGlyphs" textLength="192" x="376" y="860.043">entrypoint into the network.</text><!--entity core_node1--><path d="M362,387.1992 C362,377.1992 472,377.1992 472,377.1992 C472,377.1992 582,377.1992 582,387.1992 L582,480.9961 C582,490.9961 472,490.9961 472,490.9961 C472,490.9961 362,490.9961 362,480.9961 L362,387.1992 " fill="#999999" style="stroke: #8A8A8A; stroke-width: 1.5;"/><path d="M362,387.1992 C362,397.1992 472,397.1992 472,397.1992 C472,397.1992 582,397.1992 582,387.1992 " fill="none" style="stroke: #8A8A8A; stroke-width: 1.5;"/><text fill="#FFFFFF" font-family="sans-serif" font-size="16" font-weight="bold" lengthAdjust="spacingAndGlyphs" textLength="84" x="430" y="416.668">Core Node</text><text fill="#FFFFFF" font-family="sans-serif" font-size="14" lengthAdjust="spacingAndGlyphs" textLength="0" x="474" y="433.5781"/><text fill="#FFFFFF" font-family="sans-serif" font-size="14" lengthAdjust="spacingAndGlyphs" textLength="144" x="398" y="450.0664">Core Node hosted by</text><text fill="#FFFFFF" font-family="sans-serif" font-size="14" lengthAdjust="spacingAndGlyphs" textLength="196" x="372" y="466.5547">external node-runner. Static</text><text fill="#FFFFFF" font-family="sans-serif" font-size="14" lengthAdjust="spacingAndGlyphs" textLength="192" x="376" y="483.043">entrypoint into the network.</text><!--entity boot_node2--><path d="M69,764.1992 C69,754.1992 175,754.1992 175,754.1992 C175,754.1992 281,754.1992 281,764.1992 L281,857.9961 C281,867.9961 175,867.9961 175,867.9961 C175,867.9961 69,867.9961 69,857.9961 L69,764.1992 " fill="#1168BD" style="stroke: #3C7FC0; stroke-width: 1.5;"/><path d="M69,764.1992 C69,774.1992 175,774.1992 175,774.1992 C175,774.1992 281,774.1992 281,764.1992 " fill="none" style="stroke: #3C7FC0; stroke-width: 1.5;"/><text fill="#FFFFFF" font-family="sans-serif" font-size="16" font-weight="bold" lengthAdjust="spacingAndGlyphs" textLength="83" x="133.5" y="793.668">Boot Node</text><text fill="#FFFFFF" font-family="sans-serif" font-size="14" lengthAdjust="spacingAndGlyphs" textLength="0" x="177" y="810.5781"/><text fill="#FFFFFF" font-family="sans-serif" font-size="14" lengthAdjust="spacingAndGlyphs" textLength="171" x="87.5" y="827.0664">Core Node (higher mass)</text><text fill="#FFFFFF" font-family="sans-serif" font-size="14" lengthAdjust="spacingAndGlyphs" textLength="185" x="80.5" y="843.5547">hosted by Radix DLT. Static</text><text fill="#FFFFFF" font-family="sans-serif" font-size="14" lengthAdjust="spacingAndGlyphs" textLength="192" x="79" y="860.043">entrypoint into the network.</text><!--entity boot_noden--><path d="M69,387.1992 C69,377.1992 175,377.1992 175,377.1992 C175,377.1992 281,377.1992 281,387.1992 L281,480.9961 C281,490.9961 175,490.9961 175,490.9961 C175,490.9961 69,490.9961 69,480.9961 L69,387.1992 " fill="#1168BD" style="stroke: #3C7FC0; stroke-width: 1.5;"/><path d="M69,387.1992 C69,397.1992 175,397.1992 175,397.1992 C175,397.1992 281,397.1992 281,387.1992 " fill="none" style="stroke: #3C7FC0; stroke-width: 1.5;"/><text fill="#FFFFFF" font-family="sans-serif" font-size="16" font-weight="bold" lengthAdjust="spacingAndGlyphs" textLength="83" x="133.5" y="416.668">Boot Node</text><text fill="#FFFFFF" font-family="sans-serif" font-size="14" lengthAdjust="spacingAndGlyphs" textLength="0" x="177" y="433.5781"/><text fill="#FFFFFF" font-family="sans-serif" font-size="14" lengthAdjust="spacingAndGlyphs" textLength="171" x="87.5" y="450.0664">Core Node (higher mass)</text><text fill="#FFFFFF" font-family="sans-serif" font-size="14" lengthAdjust="spacingAndGlyphs" textLength="185" x="80.5" y="466.5547">hosted by Radix DLT. Static</text><text fill="#FFFFFF" font-family="sans-serif" font-size="14" lengthAdjust="spacingAndGlyphs" textLength="192" x="79" y="483.043">entrypoint into the network.</text><!--entity core_node2--><path d="M678,764.1992 C678,754.1992 788,754.1992 788,754.1992 C788,754.1992 898,754.1992 898,764.1992 L898,857.9961 C898,867.9961 788,867.9961 788,867.9961 C788,867.9961 678,867.9961 678,857.9961 L678,764.1992 " fill="#999999" style="stroke: #8A8A8A; stroke-width: 1.5;"/><path d="M678,764.1992 C678,774.1992 788,774.1992 788,774.1992 C788,774.1992 898,774.1992 898,764.1992 " fill="none" style="stroke: #8A8A8A; stroke-width: 1.5;"/><text fill="#FFFFFF" font-family="sans-serif" font-size="16" font-weight="bold" lengthAdjust="spacingAndGlyphs" textLength="84" x="746" y="793.668">Core Node</text><text fill="#FFFFFF" font-family="sans-serif" font-size="14" lengthAdjust="spacingAndGlyphs" textLength="0" x="790" y="810.5781"/><text fill="#FFFFFF" font-family="sans-serif" font-size="14" lengthAdjust="spacingAndGlyphs" textLength="144" x="714" y="827.0664">Core Node hosted by</text><text fill="#FFFFFF" font-family="sans-serif" font-size="14" lengthAdjust="spacingAndGlyphs" textLength="196" x="688" y="843.5547">external node-runner. Static</text><text fill="#FFFFFF" font-family="sans-serif" font-size="14" lengthAdjust="spacingAndGlyphs" textLength="192" x="692" y="860.043">entrypoint into the network.</text><!--entity core_noden--><path d="M678,387.1992 C678,377.1992 788,377.1992 788,377.1992 C788,377.1992 898,377.1992 898,387.1992 L898,480.9961 C898,490.9961 788,490.9961 788,490.9961 C788,490.9961 678,490.9961 678,480.9961 L678,387.1992 " fill="#999999" style="stroke: #8A8A8A; stroke-width: 1.5;"/><path d="M678,387.1992 C678,397.1992 788,397.1992 788,397.1992 C788,397.1992 898,397.1992 898,387.1992 " fill="none" style="stroke: #8A8A8A; stroke-width: 1.5;"/><text fill="#FFFFFF" font-family="sans-serif" font-size="16" font-weight="bold" lengthAdjust="spacingAndGlyphs" textLength="84" x="746" y="416.668">Core Node</text><text fill="#FFFFFF" font-family="sans-serif" font-size="14" lengthAdjust="spacingAndGlyphs" textLength="0" x="790" y="433.5781"/><text fill="#FFFFFF" font-family="sans-serif" font-size="14" lengthAdjust="spacingAndGlyphs" textLength="144" x="714" y="450.0664">Core Node hosted by</text><text fill="#FFFFFF" font-family="sans-serif" font-size="14" lengthAdjust="spacingAndGlyphs" textLength="196" x="688" y="466.5547">external node-runner. Static</text><text fill="#FFFFFF" font-family="sans-serif" font-size="14" lengthAdjust="spacingAndGlyphs" textLength="192" x="692" y="483.043">entrypoint into the network.</text><!--entity pers_ext1--><rect fill="#686868" height="38.8438" style="stroke: #8A8A8A; stroke-width: 1.5;" width="183" x="696.5" y="29.1992"/><text fill="#FFFFFF" font-family="sans-serif" font-size="16" font-weight="bold" lengthAdjust="spacingAndGlyphs" textLength="163" x="706.5" y="54.668">Desktop Wallet User</text><!--entity desk_wallet1--><rect fill="#999999" height="88.3086" style="stroke: #8A8A8A; stroke-width: 1.5;" width="209" x="683.5" y="153.6992"/><text fill="#FFFFFF" font-family="sans-serif" font-size="16" font-weight="bold" lengthAdjust="spacingAndGlyphs" textLength="121" x="727.5" y="179.168">Desktop Wallet</text><text fill="#FFFFFF" font-family="sans-serif" font-size="14" lengthAdjust="spacingAndGlyphs" textLength="0" x="790" y="196.0781"/><a target="_top" xlink:actuate="onRequest" xlink:href="https://github.com/radixdlt/RadixWallet" xlink:show="new" xlink:title="https://github.com/radixdlt/RadixWallet" xlink:type="simple"><text fill="#0000FF" font-family="sans-serif" font-size="14" lengthAdjust="spacingAndGlyphs" text-decoration="underline" textLength="101" x="694.5" y="212.5664">Desktop Wallet</text><line style="stroke: #0000FF; stroke-width: 1.0;" x1="694.5" x2="795.5" y1="214.5664" y2="214.5664"/></a><text fill="#FFFFFF" font-family="sans-serif" font-size="14" lengthAdjust="spacingAndGlyphs" textLength="78" x="799.5" y="212.5664">Application</text><text fill="#FFFFFF" font-family="sans-serif" font-size="14" lengthAdjust="spacingAndGlyphs" textLength="64" x="693.5" y="229.0547">using the</text><a target="_top" xlink:actuate="onRequest" xlink:href="https://github.com/radixdlt/radixdlt-js" xlink:show="new" xlink:title="https://github.com/radixdlt/radixdlt-js" xlink:type="simple"><text fill="#0000FF" font-family="sans-serif" font-size="14" lengthAdjust="spacingAndGlyphs" text-decoration="underline" textLength="73" x="761.5" y="229.0547">radixdlt-js</text><line style="stroke: #0000FF; stroke-width: 1.0;" x1="761.5" x2="834.5" y1="231.0547" y2="231.0547"/></a><text fill="#FFFFFF" font-family="sans-serif" font-size="14" lengthAdjust="spacingAndGlyphs" textLength="44" x="838.5" y="229.0547">library</text><!--entity pers_ext2--><rect fill="#686868" height="38.8438" style="stroke: #8A8A8A; stroke-width: 1.5;" width="182" x="84" y="29.1992"/><text fill="#FFFFFF" font-family="sans-serif" font-size="16" font-weight="bold" lengthAdjust="spacingAndGlyphs" textLength="162" x="94" y="54.668">Android Wallet User</text><!--entity android_wallet1--><rect fill="#999999" height="104.7969" style="stroke: #8A8A8A; stroke-width: 1.5;" width="207" x="71.5" y="145.1992"/><text fill="#FFFFFF" font-family="sans-serif" font-size="16" font-weight="bold" lengthAdjust="spacingAndGlyphs" textLength="120" x="115" y="170.668">Android Wallet</text><text fill="#FFFFFF" font-family="sans-serif" font-size="14" lengthAdjust="spacingAndGlyphs" textLength="0" x="177" y="187.5781"/><a target="_top" xlink:actuate="onRequest" xlink:href="https://github.com/radixdlt/radixdlt-wallet-android" xlink:show="new" xlink:title="https://github.com/radixdlt/radixdlt-wallet-android" xlink:type="simple"><text fill="#0000FF" font-family="sans-serif" font-size="14" lengthAdjust="spacingAndGlyphs" text-decoration="underline" textLength="101" x="81.5" y="204.0664">Android Wallet</text><line style="stroke: #0000FF; stroke-width: 1.0;" x1="81.5" x2="182.5" y1="206.0664" y2="206.0664"/></a><text fill="#FFFFFF" font-family="sans-serif" font-size="14" lengthAdjust="spacingAndGlyphs" textLength="78" x="186.5" y="204.0664">Application</text><text fill="#FFFFFF" font-family="sans-serif" font-size="14" lengthAdjust="spacingAndGlyphs" textLength="64" x="88.5" y="220.5547">using the</text><a target="_top" xlink:actuate="onRequest" xlink:href="https://github.com/radixdlt/radixdlt-kotlin" xlink:show="new" xlink:title="https://github.com/radixdlt/radixdlt-kotlin" xlink:type="simple"><text fill="#0000FF" font-family="sans-serif" font-size="14" lengthAdjust="spacingAndGlyphs" text-decoration="underline" textLength="101" x="156.5" y="220.5547">radixdlt-kotlin</text><line style="stroke: #0000FF; stroke-width: 1.0;" x1="156.5" x2="257.5" y1="222.5547" y2="222.5547"/></a><text fill="#FFFFFF" font-family="sans-serif" font-size="14" lengthAdjust="spacingAndGlyphs" textLength="0" x="261.5" y="220.5547"/><text fill="#FFFFFF" font-family="sans-serif" font-size="14" lengthAdjust="spacingAndGlyphs" textLength="44" x="153" y="237.043">library</text><!--entity pers_ext3--><rect fill="#686868" height="38.8438" style="stroke: #8A8A8A; stroke-width: 1.5;" width="142" x="401" y="29.1992"/><text fill="#FFFFFF" font-family="sans-serif" font-size="16" font-weight="bold" lengthAdjust="spacingAndGlyphs" textLength="122" x="411" y="54.668">iOS Wallet User</text><!--entity ios_wallet1--><rect fill="#999999" height="104.7969" style="stroke: #8A8A8A; stroke-width: 1.5;" width="212" x="366" y="145.1992"/><text fill="#FFFFFF" font-family="sans-serif" font-size="16" font-weight="bold" lengthAdjust="spacingAndGlyphs" textLength="80" x="432" y="170.668">iOS Wallet</text><text fill="#FFFFFF" font-family="sans-serif" font-size="14" lengthAdjust="spacingAndGlyphs" textLength="0" x="474" y="187.5781"/><text fill="#FFFFFF" font-family="sans-serif" font-size="14" lengthAdjust="spacingAndGlyphs" textLength="188" x="376" y="204.0664">iOS Wallet (WIP) Application</text><text fill="#FFFFFF" font-family="sans-serif" font-size="14" lengthAdjust="spacingAndGlyphs" textLength="64" x="389" y="220.5547">using the</text><a target="_top" xlink:actuate="onRequest" xlink:href="https://github.com/radixdlt/radixdlt-swift" xlink:show="new" xlink:title="https://github.com/radixdlt/radixdlt-swift" xlink:type="simple"><text fill="#0000FF" font-family="sans-serif" font-size="14" lengthAdjust="spacingAndGlyphs" text-decoration="underline" textLength="94" x="457" y="220.5547">radixdlt-swift</text><line style="stroke: #0000FF; stroke-width: 1.0;" x1="457" x2="551" y1="222.5547" y2="222.5547"/></a><text fill="#FFFFFF" font-family="sans-serif" font-size="14" lengthAdjust="spacingAndGlyphs" textLength="0" x="555" y="220.5547"/><text fill="#FFFFFF" font-family="sans-serif" font-size="14" lengthAdjust="spacingAndGlyphs" textLength="44" x="450" y="237.043">library</text><!--entity abt1--><rect fill="#999999" height="107.1523" style="stroke: #8A8A8A; stroke-width: 1.5;" width="200" x="13" y="945.1992"/><text fill="#FFFFFF" font-family="sans-serif" font-size="16" font-weight="bold" lengthAdjust="spacingAndGlyphs" textLength="154" x="33.5" y="970.668">Asset Backet Toket</text><text fill="#FFFFFF" font-family="sans-serif" font-size="16" font-weight="bold" lengthAdjust="spacingAndGlyphs" textLength="68" x="79" y="989.5117">Provider</text><text fill="#FFFFFF" font-family="sans-serif" font-size="14" lengthAdjust="spacingAndGlyphs" textLength="0" x="115" y="1006.4219"/><text fill="#FFFFFF" font-family="sans-serif" font-size="14" lengthAdjust="spacingAndGlyphs" textLength="176" x="23" y="1022.9102">Java Application based on</text><text fill="#FFFFFF" font-family="sans-serif" font-size="14" lengthAdjust="spacingAndGlyphs" textLength="22" x="32" y="1039.3984">the</text><a target="_top" xlink:actuate="onRequest" xlink:href="https://github.com/radixdlt/radixdlt-abt" xlink:show="new" xlink:title="https://github.com/radixdlt/radixdlt-abt" xlink:type="simple"><text fill="#0000FF" font-family="sans-serif" font-size="14" lengthAdjust="spacingAndGlyphs" text-decoration="underline" textLength="84" x="58" y="1039.3984">radixdlt-abt</text><line style="stroke: #0000FF; stroke-width: 1.0;" x1="58" x2="142" y1="1041.3984" y2="1041.3984"/></a><text fill="#FFFFFF" font-family="sans-serif" font-size="14" lengthAdjust="spacingAndGlyphs" textLength="48" x="146" y="1039.3984">Service</text><!--entity asset_custodian1--><rect fill="#999999" height="88.3086" style="stroke: #8A8A8A; stroke-width: 1.5;" width="214" x="6" y="1129.1992"/><text fill="#FFFFFF" font-family="sans-serif" font-size="16" font-weight="bold" lengthAdjust="spacingAndGlyphs" textLength="133" x="46.5" y="1154.668">Asset Custodian</text><text fill="#FFFFFF" font-family="sans-serif" font-size="14" lengthAdjust="spacingAndGlyphs" textLength="0" x="115" y="1171.5781"/><text fill="#FFFFFF" font-family="sans-serif" font-size="14" lengthAdjust="spacingAndGlyphs" textLength="190" x="16" y="1188.0664">Third-party asset custodian</text><text fill="#FFFFFF" font-family="sans-serif" font-size="14" lengthAdjust="spacingAndGlyphs" textLength="30" x="56" y="1204.5547">(e.g.</text><a target="_top" xlink:actuate="onRequest" xlink:href="https://primetrust.com/" xlink:show="new" xlink:title="https://primetrust.com/" xlink:type="simple"><text fill="#0000FF" font-family="sans-serif" font-size="14" lengthAdjust="spacingAndGlyphs" text-decoration="underline" textLength="75" x="90" y="1204.5547">PrimeTrust</text><line style="stroke: #0000FF; stroke-width: 1.0;" x1="90" x2="165" y1="1206.5547" y2="1206.5547"/></a><text fill="#FFFFFF" font-family="sans-serif" font-size="14" lengthAdjust="spacingAndGlyphs" textLength="5" x="165" y="1204.5547">)</text><!--entity java_app1--><rect fill="#999999" height="104.7969" style="stroke: #8A8A8A; stroke-width: 1.5;" width="190" x="754" y="946.1992"/><text fill="#FFFFFF" font-family="sans-serif" font-size="16" font-weight="bold" lengthAdjust="spacingAndGlyphs" textLength="141" x="778.5" y="971.668">Custom Java App</text><text fill="#FFFFFF" font-family="sans-serif" font-size="14" lengthAdjust="spacingAndGlyphs" textLength="0" x="851" y="988.5781"/><text fill="#FFFFFF" font-family="sans-serif" font-size="14" lengthAdjust="spacingAndGlyphs" textLength="166" x="764" y="1005.0664">Custom Java Application</text><text fill="#FFFFFF" font-family="sans-serif" font-size="14" lengthAdjust="spacingAndGlyphs" textLength="64" x="768.5" y="1021.5547">using the</text><a target="_top" xlink:actuate="onRequest" xlink:href="https://github.com/radixdlt/radixdlt-java" xlink:show="new" xlink:title="https://github.com/radixdlt/radixdlt-java" xlink:type="simple"><text fill="#0000FF" font-family="sans-serif" font-size="14" lengthAdjust="spacingAndGlyphs" text-decoration="underline" textLength="89" x="836.5" y="1021.5547">radixdlt-java</text><line style="stroke: #0000FF; stroke-width: 1.0;" x1="836.5" x2="925.5" y1="1023.5547" y2="1023.5547"/></a><text fill="#FFFFFF" font-family="sans-serif" font-size="14" lengthAdjust="spacingAndGlyphs" textLength="0" x="929.5" y="1021.5547"/><text fill="#FFFFFF" font-family="sans-serif" font-size="14" lengthAdjust="spacingAndGlyphs" textLength="44" x="827" y="1038.043">library</text><!--entity js_app1--><rect fill="#999999" height="104.7969" style="stroke: #8A8A8A; stroke-width: 1.5;" width="230" x="248" y="946.1992"/><text fill="#FFFFFF" font-family="sans-serif" font-size="16" font-weight="bold" lengthAdjust="spacingAndGlyphs" textLength="178" x="274" y="971.668">In-Browser Javascript</text><text fill="#FFFFFF" font-family="sans-serif" font-size="14" lengthAdjust="spacingAndGlyphs" textLength="0" x="365" y="988.5781"/><text fill="#FFFFFF" font-family="sans-serif" font-size="14" lengthAdjust="spacingAndGlyphs" textLength="134" x="294" y="1005.0664">Custom In-browser</text><text fill="#FFFFFF" font-family="sans-serif" font-size="14" lengthAdjust="spacingAndGlyphs" textLength="133" x="258" y="1021.5547">Javascript using the</text><a target="_top" xlink:actuate="onRequest" xlink:href="https://github.com/radixdlt/radixdlt-js" xlink:show="new" xlink:title="https://github.com/radixdlt/radixdlt-js" xlink:type="simple"><text fill="#0000FF" font-family="sans-serif" font-size="14" lengthAdjust="spacingAndGlyphs" text-decoration="underline" textLength="73" x="395" y="1021.5547">radixdlt-js</text><line style="stroke: #0000FF; stroke-width: 1.0;" x1="395" x2="468" y1="1023.5547" y2="1023.5547"/></a><text fill="#FFFFFF" font-family="sans-serif" font-size="14" lengthAdjust="spacingAndGlyphs" textLength="44" x="343" y="1038.043">library</text><!--entity ws_app1--><rect fill="#999999" height="104.7969" style="stroke: #8A8A8A; stroke-width: 1.5;" width="206" x="513" y="946.1992"/><text fill="#FFFFFF" font-family="sans-serif" font-size="16" font-weight="bold" lengthAdjust="spacingAndGlyphs" textLength="186" x="523" y="971.668">WebSocket Application</text><text fill="#FFFFFF" font-family="sans-serif" font-size="14" lengthAdjust="spacingAndGlyphs" textLength="0" x="618" y="988.5781"/><text fill="#FFFFFF" font-family="sans-serif" font-size="14" lengthAdjust="spacingAndGlyphs" textLength="177" x="525.5" y="1005.0664">Custom Application using</text><text fill="#FFFFFF" font-family="sans-serif" font-size="14" lengthAdjust="spacingAndGlyphs" textLength="152" x="538" y="1021.5547">the the WebSocket API</text><text fill="#FFFFFF" font-family="sans-serif" font-size="14" lengthAdjust="spacingAndGlyphs" textLength="50" x="591" y="1038.043">directly</text><!--link pers_ext1 to desk_wallet1--><path d="M788,68.4852 C788,88.8302 788,121.3077 788,148.6115 " fill="none" id="pers_ext1-desk_wallet1" style="stroke: #666666; stroke-width: 1.0;"/><polygon fill="#666666" points="788,153.6454,792,144.6454,788,148.6454,784,144.6454,788,153.6454" style="stroke: #666666; stroke-width: 1.0;"/><text fill="#666666" font-family="sans-serif" font-size="13" font-weight="bold" lengthAdjust="spacingAndGlyphs" textLength="24" x="789" y="111.7676">use</text><!--link pers_ext2 to android_wallet1--><path d="M175,68.4852 C175,86.742 175,114.7686 175,140.0593 " fill="none" id="pers_ext2-android_wallet1" style="stroke: #666666; stroke-width: 1.0;"/><polygon fill="#666666" points="175,145.0773,179,136.0773,175,140.0773,171,136.0773,175,145.0773" style="stroke: #666666; stroke-width: 1.0;"/><text fill="#666666" font-family="sans-serif" font-size="13" font-weight="bold" lengthAdjust="spacingAndGlyphs" textLength="24" x="176" y="111.7676">use</text><!--link pers_ext3 to ios_wallet1--><path d="M472,68.4852 C472,86.742 472,114.7686 472,140.0593 " fill="none" id="pers_ext3-ios_wallet1" style="stroke: #666666; stroke-width: 1.0;"/><polygon fill="#666666" points="472,145.0773,476,136.0773,472,140.0773,468,136.0773,472,145.0773" style="stroke: #666666; stroke-width: 1.0;"/><text fill="#666666" font-family="sans-serif" font-size="13" font-weight="bold" lengthAdjust="spacingAndGlyphs" textLength="24" x="473" y="111.7676">use</text><!--link core_node1 to boot_node1--><path d="M472,496.5207 C472,514.6382 472,534.4584 472,552.6992 C472,552.6992 472,552.6992 472,692.6992 C472,710.94 472,730.7602 472,748.8777 " fill="none" id="core_node1-boot_node1" style="stroke: #666666; stroke-width: 1.0;"/><polygon fill="#666666" points="472,753.9398,476,744.9398,472,748.9398,468,744.9398,472,753.9398" style="stroke: #666666; stroke-width: 1.0;"/><polygon fill="#666666" points="472,491.4586,468,500.4586,472,496.4586,476,500.4586,472,491.4586" style="stroke: #666666; stroke-width: 1.0;"/><text fill="#666666" font-family="sans-serif" font-size="13" font-weight="bold" lengthAdjust="spacingAndGlyphs" textLength="31" x="473" y="627.7676">sync</text><!--link boot_noden to boot_node2--><path d="M175,496.5207 C175,514.6382 175,534.4584 175,552.6992 C175,552.6992 175,552.6992 175,692.6992 C175,710.94 175,730.7602 175,748.8777 " fill="none" id="boot_noden-boot_node2" style="stroke: #666666; stroke-width: 1.0;"/><polygon fill="#666666" points="175,753.9398,179,744.9398,175,748.9398,171,744.9398,175,753.9398" style="stroke: #666666; stroke-width: 1.0;"/><polygon fill="#666666" points="175,491.4586,171,500.4586,175,496.4586,179,500.4586,175,491.4586" style="stroke: #666666; stroke-width: 1.0;"/><text fill="#666666" font-family="sans-serif" font-size="13" font-weight="bold" lengthAdjust="spacingAndGlyphs" textLength="31" x="176" y="627.7676">sync</text><!--link core_noden to core_node2--><path d="M845.9786,495.5273 C856.912,512.7346 865,532.3431 865,552.6992 C865,552.6992 865,552.6992 865,692.6992 C865,713.0553 856.912,732.6638 845.9786,749.8711 " fill="none" id="core_noden-core_node2" style="stroke: #666666; stroke-width: 1.0;"/><polygon fill="#666666" points="843.1409,754.1931,851.4243,748.8653,845.8852,750.0135,844.737,744.4744,843.1409,754.1931" style="stroke: #666666; stroke-width: 1.0;"/><polygon fill="#666666" points="843.1409,491.2053,844.737,500.924,845.8852,495.3849,851.4243,496.5331,843.1409,491.2053" style="stroke: #666666; stroke-width: 1.0;"/><text fill="#666666" font-family="sans-serif" font-size="13" font-weight="bold" lengthAdjust="spacingAndGlyphs" textLength="31" x="866" y="627.7676">sync</text><!--link core_noden to boot_node2--><path d="M673.7434,483.0122 C650.5019,500.6242 633,523.5605 633,552.6992 C633,552.6992 633,552.6992 633,692.6992 C633,757.9248 408.9244,737.0265 346,754.1992 C324.8675,759.9665 302.5065,766.8415 281.1688,773.7874 " fill="none" id="core_noden-boot_node2" style="stroke: #666666; stroke-width: 1.0;"/><polygon fill="#666666" points="677.8324,480.0088,668.2109,482.1129,673.8027,482.9687,672.9468,488.5605,677.8324,480.0088" style="stroke: #666666; stroke-width: 1.0;"/><text fill="#666666" font-family="sans-serif" font-size="13" font-weight="bold" lengthAdjust="spacingAndGlyphs" textLength="44" x="634" y="627.7676">gossip</text><!--link core_noden to core_node1--><path d="M677.7818,434.1992 C648.4762,434.1992 616.7496,434.1992 587.1861,434.1992 " fill="none" id="core_noden-core_node1" style="stroke: #666666; stroke-width: 1.0;"/><polygon fill="#666666" points="582.0779,434.1992,591.0779,438.1992,587.0779,434.1992,591.0779,430.1992,582.0779,434.1992" style="stroke: #666666; stroke-width: 1.0;"/><text fill="#666666" font-family="sans-serif" font-size="13" font-weight="bold" lengthAdjust="spacingAndGlyphs" textLength="44" x="608" y="427.7676">gossip</text><!--link core_noden to boot_node1--><path d="M761.1261,491.4403 C754.3707,510.5003 749,532.1237 749,552.6992 C749,552.6992 749,552.6992 749,692.6992 C749,711.6366 660.3541,747.0706 583.357,774.2764 " fill="none" id="core_noden-boot_node1" style="stroke: #666666; stroke-width: 1.0;"/><polygon fill="#666666" points="578.3032,776.0563,588.1209,776.8393,583.0192,774.3953,585.4633,769.2937,578.3032,776.0563" style="stroke: #666666; stroke-width: 1.0;"/><text fill="#666666" font-family="sans-serif" font-size="13" font-weight="bold" lengthAdjust="spacingAndGlyphs" textLength="44" x="750" y="627.7676">gossip</text><!--link boot_node1 to boot_node2--><path d="M365.859,811.1992 C340.1233,811.1992 312.5354,811.1992 286.5579,811.1992 " fill="none" id="boot_node1-boot_node2" style="stroke: #666666; stroke-width: 1.0;"/><polygon fill="#666666" points="281.3849,811.1992,290.3849,815.1992,286.3849,811.1992,290.3849,807.1992,281.3849,811.1992" style="stroke: #666666; stroke-width: 1.0;"/><text fill="#666666" font-family="sans-serif" font-size="13" font-weight="bold" lengthAdjust="spacingAndGlyphs" textLength="44" x="301.5" y="804.7676">gossip</text><!--link boot_noden to core_node1--><path d="M281.3849,434.1992 C305.7818,434.1992 331.832,434.1992 356.5894,434.1992 " fill="none" id="boot_noden-core_node1" style="stroke: #666666; stroke-width: 1.0;"/><polygon fill="#666666" points="361.8516,434.1992,352.8516,430.1992,356.8516,434.1992,352.8516,438.1992,361.8516,434.1992" style="stroke: #666666; stroke-width: 1.0;"/><text fill="#666666" font-family="sans-serif" font-size="13" font-weight="bold" lengthAdjust="spacingAndGlyphs" textLength="44" x="299.5" y="427.7676">gossip</text><!--link desk_wallet1 to core_noden--><path d="M788,241.9056 C788,278.3714 788,330.5565 788,371.3641 " fill="none" id="desk_wallet1-core_noden" style="stroke: #666666; stroke-width: 1.0;"/><polygon fill="#666666" points="788,376.7894,792,367.7894,788,371.7894,784,367.7894,788,376.7894" style="stroke: #666666; stroke-width: 1.0;"/><text fill="#666666" font-family="sans-serif" font-size="13" font-weight="bold" lengthAdjust="spacingAndGlyphs" textLength="72" x="789" y="293.7676">WebSocket</text><!--link android_wallet1 to boot_noden--><path d="M175,250.4801 C175,286.4393 175,334.1931 175,372.0012 " fill="none" id="android_wallet1-boot_noden" style="stroke: #666666; stroke-width: 1.0;"/><polygon fill="#666666" points="175,377.0316,179,368.0316,175,372.0316,171,368.0316,175,377.0316" style="stroke: #666666; stroke-width: 1.0;"/><text fill="#666666" font-family="sans-serif" font-size="13" font-weight="bold" lengthAdjust="spacingAndGlyphs" textLength="72" x="176" y="293.7676">WebSocket</text><!--link ios_wallet1 to core_node1--><path d="M472,250.4801 C472,286.4393 472,334.1931 472,372.0012 " fill="none" id="ios_wallet1-core_node1" style="stroke: #666666; stroke-width: 1.0;"/><polygon fill="#666666" points="472,377.0316,476,368.0316,472,372.0316,468,368.0316,472,377.0316" style="stroke: #666666; stroke-width: 1.0;"/><text fill="#666666" font-family="sans-serif" font-size="13" font-weight="bold" lengthAdjust="spacingAndGlyphs" textLength="72" x="473" y="293.7676">WebSocket</text><!--link boot_node2 to abt1--><path d="M154.5178,873.1414 C146.8165,896.4315 138.1328,922.6928 130.7053,945.155 " fill="none" id="boot_node2-abt1" style="stroke: #666666; stroke-width: 1.0;"/><polygon fill="#666666" points="156.1454,868.2191,149.5219,875.5081,154.5755,872.9663,157.1174,878.0199,156.1454,868.2191" style="stroke: #666666; stroke-width: 1.0;"/><text fill="#666666" font-family="sans-serif" font-size="13" font-weight="bold" lengthAdjust="spacingAndGlyphs" textLength="72" x="147" y="911.7676">WebSocket</text><!--link abt1 to asset_custodian1--><path d="M113,1052.4788 C113,1075.1925 113,1101.4731 113,1123.7029 " fill="none" id="abt1-asset_custodian1" style="stroke: #666666; stroke-width: 1.0;"/><polygon fill="#666666" points="113,1128.9672,117,1119.9672,113,1123.9672,109,1119.9672,113,1128.9672" style="stroke: #666666; stroke-width: 1.0;"/><text fill="#666666" font-family="sans-serif" font-size="13" font-weight="bold" lengthAdjust="spacingAndGlyphs" textLength="24" x="114" y="1095.7676">use</text><!--link core_node2 to java_app1--><path d="M808.1732,873.2071 C815.8522,896.8106 824.5215,923.4579 831.8899,946.1066 " fill="none" id="core_node2-java_app1" style="stroke: #666666; stroke-width: 1.0;"/><polygon fill="#666666" points="806.5505,868.2191,805.5313,878.0151,808.0975,872.9738,813.1388,875.5399,806.5505,868.2191" style="stroke: #666666; stroke-width: 1.0;"/><text fill="#666666" font-family="sans-serif" font-size="13" font-weight="bold" lengthAdjust="spacingAndGlyphs" textLength="72" x="821" y="911.7676">WebSocket</text><!--link boot_node1 to js_app1--><path d="M436.2969,872.6152 C422.4907,896.3643 406.8505,923.2684 393.5738,946.1066 " fill="none" id="boot_node1-js_app1" style="stroke: #666666; stroke-width: 1.0;"/><polygon fill="#666666" points="438.8525,868.2191,430.871,873.9894,436.3395,872.5417,437.7872,878.0102,438.8525,868.2191" style="stroke: #666666; stroke-width: 1.0;"/><text fill="#666666" font-family="sans-serif" font-size="13" font-weight="bold" lengthAdjust="spacingAndGlyphs" textLength="72" x="421" y="911.7676">WebSocket</text><!--link boot_node1 to ws_app1--><path d="M518.9405,872.3197 C537.2353,896.141 557.9963,923.1736 575.6089,946.1066 " fill="none" id="boot_node1-ws_app1" style="stroke: #666666; stroke-width: 1.0;"/><polygon fill="#666666" points="515.7913,868.2191,518.101,877.7933,518.8369,872.1845,524.4456,872.9204,515.7913,868.2191" style="stroke: #666666; stroke-width: 1.0;"/><text fill="#666666" font-family="sans-serif" font-size="13" font-weight="bold" lengthAdjust="spacingAndGlyphs" textLength="72" x="549" y="911.7676">WebSocket</text><rect fill="#DDDDDD" height="96.4414" rx="5" ry="5" style="stroke: #000000; stroke-width: 1.0;" width="199" x="754" y="1235.1992"/><text fill="#000000" font-family="sans-serif" font-size="14" font-weight="bold" lengthAdjust="spacingAndGlyphs" textLength="0" x="830" y="1255.7344"/><text fill="#000000" font-family="sans-serif" font-size="14" font-weight="bold" lengthAdjust="spacingAndGlyphs" textLength="35" x="835" y="1255.7344">Type</text><rect fill="#08427B" height="16.4883" style="stroke: none; stroke-width: 1.0;" width="70" x="760" y="1258.6875"/><text fill="#000000" font-family="sans-serif" font-size="14" lengthAdjust="spacingAndGlyphs" textLength="0" x="784" y="1272.2227"/><text fill="#000000" font-family="sans-serif" font-size="14" lengthAdjust="spacingAndGlyphs" textLength="48" x="834" y="1272.2227">person</text><rect fill="#686868" height="16.4883" style="stroke: none; stroke-width: 1.0;" width="70" x="760" y="1275.1758"/><text fill="#000000" font-family="sans-serif" font-size="14" lengthAdjust="spacingAndGlyphs" textLength="0" x="784" y="1288.7109"/><text fill="#000000" font-family="sans-serif" font-size="14" lengthAdjust="spacingAndGlyphs" textLength="109" x="834" y="1288.7109">external person</text><rect fill="#1168BD" height="16.4883" style="stroke: none; stroke-width: 1.0;" width="70" x="760" y="1291.6641"/><text fill="#000000" font-family="sans-serif" font-size="14" lengthAdjust="spacingAndGlyphs" textLength="0" x="772" y="1305.1992"/><text fill="#000000" font-family="sans-serif" font-size="14" lengthAdjust="spacingAndGlyphs" textLength="47" x="834" y="1305.1992">system</text><rect fill="#999999" height="16.4883" style="stroke: none; stroke-width: 1.0;" width="70" x="760" y="1308.1523"/><text fill="#000000" font-family="sans-serif" font-size="14" lengthAdjust="spacingAndGlyphs" textLength="0" x="784" y="1321.6875"/><text fill="#000000" font-family="sans-serif" font-size="14" lengthAdjust="spacingAndGlyphs" textLength="108" x="834" y="1321.6875">external system</text><line style="stroke: #000000; stroke-width: 1.0;" x1="760" x2="947" y1="1242.1992" y2="1242.1992"/><line style="stroke: #000000; stroke-width: 1.0;" x1="760" x2="947" y1="1258.6875" y2="1258.6875"/><line style="stroke: #000000; stroke-width: 1.0;" x1="760" x2="947" y1="1275.1758" y2="1275.1758"/><line style="stroke: #000000; stroke-width: 1.0;" x1="760" x2="947" y1="1291.6641" y2="1291.6641"/><line style="stroke: #000000; stroke-width: 1.0;" x1="760" x2="947" y1="1308.1523" y2="1308.1523"/><line style="stroke: #000000; stroke-width: 1.0;" x1="760" x2="947" y1="1324.6406" y2="1324.6406"/><line style="stroke: #000000; stroke-width: 1.0;" x1="760" x2="760" y1="1242.1992" y2="1324.6406"/><line style="stroke: #000000; stroke-width: 1.0;" x1="830" x2="830" y1="1242.1992" y2="1324.6406"/><line style="stroke: #000000; stroke-width: 1.0;" x1="947" x2="947" y1="1242.1992" y2="1324.6406"/><!--
@startuml c4_context





skinparam defaultTextAlignment center

skinparam wrapWidth 200
skinparam maxMessageSize 150

skinparam rectangle {
    StereotypeFontSize 12
    shadowing false
}

skinparam database {
    StereotypeFontSize 12
    shadowing false
}

skinparam Arrow {
    Color #666666
    FontColor #666666
    FontSize 12
}

skinparam rectangle<<boundary>> {
    Shadowing false
    StereotypeFontSize 0
    FontColor #444444
    BorderColor #444444
    BorderStyle dashed
}






















skinparam rectangle<<person>> {
    StereotypeFontColor #FFFFFF
    FontColor #FFFFFF
    BackgroundColor #08427B
    BorderColor #073B6F
}

skinparam rectangle<<external_person>> {
    StereotypeFontColor #FFFFFF
    FontColor #FFFFFF
    BackgroundColor #686868
    BorderColor #8A8A8A
}

skinparam rectangle<<system>> {
    StereotypeFontColor #FFFFFF
    FontColor #FFFFFF
    BackgroundColor #1168BD
    BorderColor #3C7FC0
}

skinparam rectangle<<external_system>> {
    StereotypeFontColor #FFFFFF
    FontColor #FFFFFF
    BackgroundColor #999999
    BorderColor #8A8A8A
}

skinparam database<<system>> {
    StereotypeFontColor #FFFFFF
    FontColor #FFFFFF
    BackgroundColor #1168BD
    BorderColor #3C7FC0
}

skinparam database<<external_system>> {
    StereotypeFontColor #FFFFFF
    FontColor #FFFFFF
    BackgroundColor #999999
    BorderColor #8A8A8A
}













top to bottom direction
hide stereotype
legend right
|=              |= Type |
|<#08427B>      | person |
|<#686868>      | external person |
|<#1168BD>   | system |
|<#999999>      | external system |
endlegend

title The RadixDLT Network

rectangle "==Desktop Wallet User" <<external_person>> as pers_ext1
rectangle "==Desktop Wallet\n\n [[https://github.com/radixdlt/RadixWallet Desktop Wallet]] Application using the [[https://github.com/radixdlt/radixdlt-js radixdlt-js]] library" <<external_system>> as desk_wallet1
pers_ext1 -DOWN-> desk_wallet1 : "===use"

rectangle "==Android Wallet User" <<external_person>> as pers_ext2
rectangle "==Android Wallet\n\n [[https://github.com/radixdlt/radixdlt-wallet-android Android Wallet]] Application using the [[https://github.com/radixdlt/radixdlt-kotlin radixdlt-kotlin]] library" <<external_system>> as android_wallet1
pers_ext2 -DOWN-> android_wallet1 : "===use"

rectangle "==iOS Wallet User" <<external_person>> as pers_ext3
rectangle "==iOS Wallet\n\n iOS Wallet (WIP) Application using the [[https://github.com/radixdlt/radixdlt-swift radixdlt-swift]] library" <<external_system>> as ios_wallet1
pers_ext3 -DOWN-> ios_wallet1 : "===use"

rectangle "==Core Nodes\n<size:12>[System]</size>" <<boundary>> as core_nodes {
    rectangle "==Shard 1" <<boundary>> as shard1 {
        database "==Boot Node\n\n Core Node (higher mass) hosted by Radix DLT. Static entrypoint into the network." <<system>> as boot_node1
        database "==Core Node\n\n Core Node hosted by external node-runner. Static entrypoint into the network." <<external_system>> as core_node1
        boot_node1 <-UP-> core_node1 : "===sync"
    }
    rectangle "==Shard 2" <<boundary>> as shard2 {
        database "==Boot Node\n\n Core Node (higher mass) hosted by Radix DLT. Static entrypoint into the network." <<system>> as boot_node2
        database "==Boot Node\n\n Core Node (higher mass) hosted by Radix DLT. Static entrypoint into the network." <<system>> as boot_noden
        boot_node2 <-UP-> boot_noden : "===sync"
    }
    rectangle "==Shard N" <<boundary>> as shardn {
        database "==Core Node\n\n Core Node hosted by external node-runner. Static entrypoint into the network." <<external_system>> as core_node2
        database "==Core Node\n\n Core Node hosted by external node-runner. Static entrypoint into the network." <<external_system>> as core_noden
        core_node2 <-UP-> core_noden : "===sync"
    }
    core_noden <-RIGHT- boot_node2 : "===gossip"
    core_noden -RIGHT-> core_node1 : "===gossip"
    core_noden -RIGHT-> boot_node1 : "===gossip"
    boot_node1 -RIGHT-> boot_node2 : "===gossip"
    boot_noden -RIGHT-> core_node1 : "===gossip"
}

desk_wallet1 -DOWN-> core_noden : "===WebSocket"
android_wallet1 -DOWN-> boot_noden : "===WebSocket"
ios_wallet1 -DOWN-> core_node1 : "===WebSocket"

rectangle "==Asset Backet Toket Provider\n\n Java Application based on the [[https://github.com/radixdlt/radixdlt-abt radixdlt-abt]] Service" <<external_system>> as abt1
abt1 -UP-> boot_node2 : "===WebSocket"

rectangle "==Asset Custodian\n\n Third-party asset custodian (e.g. [[https://primetrust.com/ PrimeTrust]])" <<external_system>> as asset_custodian1
abt1 -DOWN-> asset_custodian1 : "===use"

rectangle "==Custom Java App\n\n Custom Java Application using the [[https://github.com/radixdlt/radixdlt-java radixdlt-java]] library" <<external_system>> as java_app1
java_app1 -UP-> core_node2 : "===WebSocket"

rectangle "==In-Browser Javascript\n\n Custom In-browser Javascript using the [[https://github.com/radixdlt/radixdlt-js radixdlt-js]] library" <<external_system>> as js_app1
js_app1 -UP-> boot_node1 : "===WebSocket"

rectangle "==WebSocket Application\n\n Custom Application using the the WebSocket API directly" <<external_system>> as ws_app1
ws_app1 -UP-> boot_node1 : "===WebSocket"

@enduml

PlantUML version 1.2019.03(Sun Mar 10 12:04:44 CET 2019)
(GPL source distribution)
Java Runtime: Java(TM) SE Runtime Environment
JVM: Java HotSpot(TM) 64-Bit Server VM
Java Version: 1.8.0_181-b13
Operating System: Mac OS X
OS Version: 10.14.4
Default Encoding: US-ASCII
Language: en
Country: SE
--></g></svg>